<?xml version="1.0"?>
<!DOCTYPE svg PUBLIC "-//W3C//DTD SVG 1.1//EN" 
	"http://www.w3.org/Graphics/SVG/1.1/DTD/svg11.dtd">
<svg xmlns="http://www.w3.org/2000/svg" 
	xmlns:xlink="http://www.w3.org/1999/xlink"
	width="256" height="256">
<g transform="translate(128, 138) scale(1.27)">
	<path fill="#000" d="
		M -100,-25
		q 100,50 200,0
		l 0,-25
		a 25,25 0 0,0 -25,-25
		l -150,0
		a 25,25 0 0,0 -25,25
		Z
		m 0,75
		a 25,25 0 0,0 25,25
		l 150,0
		a 25,25 0 0,0 25,-25
		l 0,-69
		q -100,50 -200,0
		Z
		M -25,-77
		l 0,-6
		a 5,5 0 0,1 5,-5
		l 40,0
		a 5,5 0 0,1 5,5
		l 0,6
		l 8,0
		l 0,-6
		a 13,13 0 0,0 -13,-13
		l -40,0
		a 13,13 0 0,0 -13,13
		l 0,6
		Z
		" />
</g>
</svg>
